<svg xmlns="http://www.w3.org/2000/svg" viewBox="0 0 128 128" fill="none">
  <defs>
    <linearGradient id="bg" x1="0%" y1="0%" x2="100%" y2="100%">
      <stop offset="0%" style="stop-color:#00D4AA"/>
      <stop offset="100%" style="stop-color:#0984E3"/>
    </linearGradient>
  </defs>
  <!-- Background circle -->
  <circle cx="64" cy="64" r="60" fill="url(#bg)"/>
  <!-- Game controller shape -->
  <path d="M38 52 Q38 42 48 42 L80 42 Q90 42 90 52 L90 76 Q90 88 80 88 L72 88 Q66 88 64 82 L62 78 Q61 76 59 78 L56 82 Q54 88 48 88 L40 88 Q30 88 30 76 Z" 
        fill="#0A0E17" stroke="none" opacity="0.9"/>
  <!-- D-pad -->
  <rect x="40" y="55" width="14" height="4" rx="1" fill="#00D4AA"/>
  <rect x="45" y="50" width="4" height="14" rx="1" fill="#00D4AA"/>
  <!-- AB buttons -->
  <circle cx="75" cy="58" r="4" fill="#0984E3" opacity="0.7"/>
  <circle cx="83" cy="65" r="4" fill="#F85149" opacity="0.7"/>
  <circle cx="75" cy="72" r="4" fill="#D29922" opacity="0.7"/>
  <!-- W letter hint -->
  <text x="64" y="70" font-family="Arial" font-weight="bold" font-size="16" 
        fill="#00D4AA" text-anchor="middle">W</text>
</svg>
